<svg width="26" height="25" viewBox="0 0 26 25" fill="none" xmlns="http://www.w3.org/2000/svg">
<g id="Group 25">
<path id="Vector" d="M20.3079 9.11957C21.4417 8.30848 22.1897 6.9069 22.1897 5.32364C22.1897 2.81897 20.3257 0.781494 18.0342 0.781494C15.7428 0.781494 13.8787 2.81897 13.8787 5.32364C13.8787 6.91339 14.6326 8.31497 15.7665 9.12606C15.2085 9.3337 14.6683 9.61921 14.1637 9.97609C13.8906 10.1708 13.8134 10.5731 13.9915 10.8715C14.1696 11.17 14.5377 11.2544 14.8167 11.0597C15.7784 10.3719 16.8944 10.002 18.0402 10.002C21.3111 10.002 23.9766 12.9544 23.9766 16.5882C23.9766 16.9321 23.9469 17.2889 23.8876 17.6848C23.8341 18.0352 24.0538 18.3726 24.3744 18.431C24.41 18.431 24.4397 18.4375 24.4753 18.4375C24.7602 18.4375 25.0096 18.2104 25.063 17.8924C25.1342 17.4252 25.1698 16.997 25.1698 16.5817C25.1698 13.1102 23.1277 10.1643 20.3079 9.11309V9.11957ZM18.0342 8.56803C16.3958 8.56803 15.066 7.11454 15.066 5.32364C15.066 3.53274 16.3958 2.07925 18.0342 2.07925C19.6727 2.07925 21.0025 3.53274 21.0025 5.32364C21.0025 7.11454 19.6727 8.56803 18.0342 8.56803Z" fill="#7A182F" stroke="#7A182F"/>
<path id="Vector_2" d="M8.5408 10.002C9.69248 10.002 10.8085 10.3654 11.7643 11.0597C12.0374 11.2544 12.4054 11.1765 12.5895 10.8715C12.7676 10.5731 12.6963 10.1708 12.4173 9.97609C11.9127 9.61272 11.3784 9.3337 10.8145 9.12606C11.9483 8.31497 12.7023 6.91339 12.7023 5.32364C12.7023 2.81897 10.8382 0.781494 8.54674 0.781494C6.25527 0.781494 4.39123 2.81897 4.39123 5.32364C4.39123 6.91339 5.14516 8.30848 6.27308 9.11958C3.45327 10.1708 1.41113 13.1167 1.41113 16.5882C1.41113 17.0034 1.44675 17.4317 1.51799 17.8989C1.56548 18.2168 1.81481 18.444 2.1057 18.444C2.13538 18.444 2.171 18.444 2.20662 18.4375C2.52718 18.3791 2.74683 18.0416 2.69341 17.6913C2.63404 17.2954 2.60436 16.9321 2.60436 16.5946C2.60436 12.9674 5.26982 10.0085 8.5408 10.0085V10.002ZM5.57852 5.32364C5.57852 3.53274 6.90828 2.07925 8.54674 2.07925C10.1852 2.07925 11.515 3.53274 11.515 5.32364C11.515 7.11454 10.1852 8.56803 8.54674 8.56803C6.90828 8.56803 5.57852 7.11454 5.57852 5.32364Z" fill="#7A182F" stroke="#7A182F"/>
<path id="Vector_3" d="M18.4368 13.5839H8.14301C7.76901 13.5839 7.41876 13.772 7.19318 14.103C6.96759 14.4339 6.89636 14.8427 6.99727 15.2385L7.84619 18.4829C7.98866 19.0344 8.45764 19.4238 8.98598 19.4238H17.5879C18.1162 19.4238 18.5852 19.0344 18.7277 18.4829L19.5766 15.2385C19.6775 14.8427 19.6122 14.4274 19.3807 14.103C19.1492 13.7785 18.8108 13.5839 18.4309 13.5839H18.4368ZM17.5879 18.126H8.98598L8.13707 14.8816H18.4368L17.5879 18.126Z" fill="#7A182F" stroke="#7A182F"/>
<path id="Vector_4" d="M18.0405 20.7216C17.714 20.7216 17.4468 21.0136 17.4468 21.3704V23.2587C17.4468 23.6156 17.714 23.9075 18.0405 23.9075C18.367 23.9075 18.6341 23.6156 18.6341 23.2587V21.3704C18.6341 21.0136 18.367 20.7216 18.0405 20.7216Z" fill="#7A182F" stroke="#7A182F"/>
<path id="Vector_5" d="M8.54087 20.7216C8.21437 20.7216 7.94723 21.0136 7.94723 21.3704V23.2587C7.94723 23.6156 8.21437 23.9075 8.54087 23.9075C8.86738 23.9075 9.13452 23.6156 9.13452 23.2587V21.3704C9.13452 21.0136 8.86738 20.7216 8.54087 20.7216Z" fill="#7A182F" stroke="#7A182F"/>
</g>
</svg>
