<svg width="28" height="28" viewBox="0 0 28 28" fill="none" xmlns="http://www.w3.org/2000/svg">
<g id="Group">
<path id="Vector" d="M20.9076 11.6706C20.1578 11.6706 19.4789 11.9759 18.9881 12.4689L18.9601 12.4952C18.486 12.9843 18.1934 13.6554 18.1934 14.3969C18.1934 15.1501 18.4973 15.8322 18.9881 16.3252C19.4789 16.8182 20.1578 17.1235 20.9076 17.1235C21.6573 17.1235 22.3363 16.8182 22.8271 16.3252C23.3178 15.8322 23.6218 15.1501 23.6218 14.3969C23.6218 13.6423 23.3185 12.9601 22.8292 12.4689C22.3363 11.9759 21.6573 11.6706 20.9076 11.6706ZM10.3626 14.8273L13.4826 14.827V12.3861C13.4826 12.2606 13.5208 12.144 13.5866 12.0473C13.8626 11.5725 14.0795 11.0613 14.2249 10.5257C14.3686 9.99817 14.4454 9.43549 14.4454 8.84757C14.4454 7.09306 13.7374 5.50455 12.5938 4.35573L12.5676 4.32765C11.4258 3.19518 9.85556 2.49565 8.12218 2.49565C6.37606 2.49565 4.79482 3.20691 3.65126 4.35573L3.62331 4.38203C2.49603 5.52908 1.79971 7.10657 1.79971 8.84757C1.79971 10.6017 2.50771 12.1902 3.65126 13.3391C4.79482 14.4879 6.37606 15.1991 8.12218 15.1991C8.48414 15.1991 8.83266 15.1703 9.1649 15.1152C9.50704 15.0584 9.84388 14.9724 10.1708 14.86C10.2345 14.8384 10.2989 14.828 10.3626 14.8273ZM14.082 16.0312H10.4556C10.1032 16.1468 9.73561 16.2378 9.35667 16.3003C8.94836 16.3679 8.53544 16.4034 8.12218 16.4034C6.0463 16.4034 4.16502 15.5571 2.80421 14.19C1.44341 12.8229 0.600952 10.933 0.600952 8.84757C0.600952 6.77955 1.43031 4.90384 2.77272 3.5389L2.80421 3.50478C4.16502 2.13771 6.0463 1.29138 8.12218 1.29138C10.1811 1.29138 12.0482 2.12456 13.4069 3.47314L13.4409 3.50478C14.8017 4.87185 15.6441 6.76143 15.6441 8.84757C15.6441 9.53039 15.5507 10.1994 15.3763 10.8406C15.2117 11.4445 14.9768 12.0161 14.6814 12.5446V15.4291C14.6814 15.7615 14.4128 16.0312 14.082 16.0312ZM11.4364 6.7824C11.7673 6.7824 12.0358 7.05218 12.0358 7.38453C12.0358 7.71688 11.7673 7.98667 11.4364 7.98667H4.80933C4.4785 7.98667 4.20995 7.71688 4.20995 7.38453C4.20995 7.05218 4.4785 6.7824 4.80933 6.7824H11.4364ZM11.4364 9.70847C11.7673 9.70847 12.0358 9.97826 12.0358 10.3106C12.0358 10.643 11.7673 10.9127 11.4364 10.9127H4.80933C4.4785 10.9127 4.20995 10.643 4.20995 10.3106C4.20995 9.97826 4.4785 9.70847 4.80933 9.70847H11.4364ZM17.2926 20.6475C16.7169 21.1622 16.2484 21.7956 15.9289 22.5065C15.6225 23.1886 15.4513 23.9468 15.4513 24.7444V25.4731H26.3639V24.7444C26.3639 23.9464 26.1927 23.1883 25.8862 22.5065C25.5667 21.7952 25.0986 21.1618 24.5226 20.6479L24.4954 20.6219C24.2268 20.3916 23.9154 20.2497 23.5928 20.2028C23.2566 20.1538 22.9042 20.2057 22.5695 20.3621C22.0448 20.6073 21.4758 20.7307 20.9079 20.7307C20.3404 20.7307 19.7711 20.6073 19.246 20.3621C18.9113 20.2057 18.5589 20.1538 18.2253 20.2028L18.2072 20.2053C17.8785 20.2561 17.5625 20.4054 17.2926 20.6475ZM14.8385 22.0124C15.2287 21.1444 15.798 20.3727 16.4968 19.7493C16.9472 19.3497 17.4759 19.102 18.0299 19.0163L18.0519 19.0128C18.6148 18.93 19.2015 19.0135 19.7513 19.2708C20.1154 19.4407 20.5113 19.5264 20.9079 19.5264C21.3046 19.5264 21.7009 19.4407 22.0642 19.2708C22.6141 19.0135 23.2007 18.93 23.7637 19.0128C24.3107 19.0935 24.8343 19.3316 25.2801 19.7176L25.3187 19.7493C26.0175 20.3727 26.5868 21.1441 26.9767 22.0124C27.3528 22.8492 27.5627 23.7748 27.5627 24.7444V26.0752C27.5627 26.4076 27.2941 26.6774 26.9633 26.6774H14.8519C14.5211 26.6774 14.2525 26.4076 14.2525 26.0752V24.7444C14.2525 23.7751 14.4623 22.8495 14.8385 22.0124ZM18.141 11.618C18.849 10.9067 19.8277 10.4663 20.9076 10.4663C21.9875 10.4663 22.9661 10.9067 23.6741 11.618C24.3818 12.3314 24.8205 13.3145 24.8205 14.3969C24.8205 15.4817 24.3821 16.4649 23.6741 17.1762C22.9661 17.8874 21.9875 18.3278 20.9076 18.3278C19.8277 18.3278 18.849 17.8874 18.141 17.1762C17.433 16.4649 16.9947 15.4817 16.9947 14.3969C16.9947 13.3312 17.42 12.3616 18.1096 11.6524L18.141 11.618Z" fill="#141C3A" stroke="#141C3A" stroke-width="0.8"/>
</g>
</svg>
