<svg width="22" height="24" viewBox="0 0 22 24" fill="none" xmlns="http://www.w3.org/2000/svg">
<path id="Vector" fill-rule="evenodd" clip-rule="evenodd" d="M15.6416 8.95256C15.6416 10.0855 15.2185 11.1257 14.5154 11.937L20.8771 22.4287C21.1358 22.8546 20.9806 23.3965 20.5331 23.6428C20.0857 23.8861 19.5165 23.7384 19.2578 23.3153L16.0221 17.9782C14.7285 18.9575 13.2065 19.5283 11.6481 19.6906V20.5338C11.6481 21.0263 11.228 21.4262 10.7106 21.4262C10.19 21.4262 9.76999 21.0263 9.76999 20.5338V19.6906C8.21153 19.5283 6.68959 18.9575 5.39594 17.9782L2.1603 23.3153C1.90157 23.7384 1.33237 23.8861 0.884916 23.6428C0.437466 23.3965 0.282228 22.8546 0.540958 22.4287L6.90266 11.9399C6.19953 11.1286 5.77643 10.0855 5.77643 8.95256C5.77643 7.65739 6.33041 6.48101 7.22227 5.63205C7.9041 4.98302 8.78682 4.52232 9.76999 4.34267V1.77841C9.76999 1.28584 10.19 0.885986 10.7106 0.885986C11.228 0.885986 11.6481 1.28584 11.6481 1.77841V4.34267C12.6343 4.52232 13.514 4.98302 14.1958 5.63205C15.0907 6.48101 15.6416 7.65739 15.6416 8.95256ZM12.8717 11.0098C13.4226 10.4853 13.7666 9.75516 13.7666 8.95256C13.7666 8.14996 13.4226 7.42269 12.8717 6.89535C12.3177 6.36801 11.5537 6.04349 10.7106 6.04349C9.86435 6.04349 9.10034 6.36801 8.5494 6.89535C7.99541 7.42269 7.65145 8.14996 7.65145 8.95256C7.65145 9.75516 7.99541 10.4853 8.5494 11.0098C9.10034 11.5371 9.86435 11.8616 10.7106 11.8616C11.5537 11.8616 12.3177 11.5371 12.8717 11.0098ZM13.0543 13.0844C12.3573 13.4436 11.5567 13.6494 10.7106 13.6494C9.86131 13.6494 9.06077 13.4436 8.36372 13.0844L6.34868 16.4078C7.34402 17.2306 8.53722 17.7261 9.76999 17.8913V17.1611C9.76999 16.6685 10.19 16.2687 10.7106 16.2687C11.228 16.2687 11.6481 16.6685 11.6481 17.1611V17.8913C12.8808 17.7261 14.074 17.2306 15.0724 16.4078L13.0543 13.0844Z" fill="#69237B"/>
</svg>
