<svg width="24" height="23" viewBox="0 0 24 23" fill="none" xmlns="http://www.w3.org/2000/svg">
<g id="Group">
<path id="Vector" d="M0.505841 12.5477C0.52551 12.7976 0.564846 13.0474 0.623851 13.278C0.643519 13.3741 0.663187 13.4702 0.682855 13.5663C0.820533 14.2197 1.01721 14.8539 1.29257 15.4497C1.33191 15.5458 1.37124 15.6419 1.41058 15.7188C1.50892 15.9302 1.60726 16.1416 1.72527 16.353C1.78427 16.4491 1.82361 16.5452 1.88261 16.6413C2.00062 16.8527 2.1383 17.0641 2.27598 17.2755C2.31532 17.3331 2.35465 17.41 2.41366 17.4677C2.43332 17.4869 2.43332 17.5061 2.45299 17.5253C2.47266 17.5446 2.49233 17.5638 2.49233 17.583C2.80702 18.025 3.16105 18.4478 3.55441 18.8514C3.55441 18.8514 3.57408 18.8706 3.57408 18.8899C3.59375 18.9283 3.63308 18.9475 3.67242 18.986C3.75109 19.0628 3.82977 19.1397 3.90844 19.2166C3.94778 19.2358 3.96744 19.2742 4.00678 19.3127L4.02645 19.3319C4.43948 19.7163 4.89185 20.0814 5.36389 20.4081C5.38355 20.4274 5.40322 20.4466 5.42289 20.4466C5.71791 20.6388 6.0326 20.8117 6.32763 20.9847C6.38663 21.0231 6.4653 21.0616 6.52431 21.0808C6.76033 21.2153 7.01601 21.3306 7.2717 21.4267C7.35037 21.4652 7.40938 21.4844 7.48805 21.5228C8.11743 21.7727 8.78615 21.9841 9.45487 22.1186C9.53354 22.1378 9.63188 22.157 9.71056 22.1762C9.96624 22.2147 10.2219 22.2723 10.4973 22.2916C10.5956 22.3108 10.694 22.3108 10.7923 22.33C11.1463 22.3684 11.4807 22.3877 11.8347 22.3877C14.2146 22.3877 16.4174 21.6766 18.2269 20.4658C18.2269 20.4658 18.2466 20.4658 18.2466 20.4466C18.5219 20.2736 18.7776 20.0814 19.0333 19.87C19.0726 19.8316 19.112 19.8124 19.1513 19.7739C19.3283 19.6202 19.5053 19.4664 19.6823 19.2935L19.761 19.2166C19.8397 19.1397 19.9183 19.0628 19.997 18.986L20.0954 18.8899C20.1937 18.7938 20.2724 18.6785 20.3707 18.5824C20.4691 18.4671 20.5871 18.371 20.6657 18.2364C20.8624 18.0058 21.0394 17.7752 21.2164 17.5253C21.2164 17.5253 21.2164 17.5061 21.2361 17.5061C22.4949 15.7188 23.2423 13.5471 23.2423 11.2024C23.2423 10.8565 23.2226 10.5105 23.1833 10.1838C23.1833 10.0877 23.1636 9.99163 23.1439 9.89554C23.1046 9.6457 23.0653 9.37663 23.0259 9.12679C23.0063 9.04992 22.9866 8.95382 22.9669 8.87695C22.8292 8.22352 22.6129 7.57008 22.3572 6.95509C22.3179 6.87821 22.2982 6.82056 22.2589 6.74368C22.1409 6.49384 22.0228 6.26322 21.9048 6.01337C21.8655 5.95572 21.8458 5.87884 21.8065 5.82119C21.6295 5.51369 21.4525 5.22541 21.2558 4.93713C21.2361 4.91791 21.2164 4.89869 21.1968 4.87947C21.0591 4.68729 20.9018 4.4951 20.7641 4.30291C20.7641 4.2837 20.7641 4.2837 20.7444 4.26448C20.7247 4.24526 20.7051 4.22604 20.7051 4.20682C20.1937 3.57261 19.6037 3.01527 18.9546 2.49636C18.9349 2.47714 18.9153 2.45793 18.8956 2.45793C18.8956 2.45793 18.8759 2.45793 18.8563 2.43871C18.6793 2.30418 18.5022 2.16965 18.3252 2.05433C18.3056 2.03512 18.2859 2.0159 18.2662 2.0159C18.2466 1.99668 18.2269 1.99668 18.2072 1.97746C18.1482 1.93902 18.0695 1.90058 18.0105 1.86215C17.7942 1.72762 17.5778 1.59309 17.3418 1.47777C17.2435 1.42012 17.1451 1.38168 17.0468 1.32403C16.8304 1.20871 16.6141 1.11262 16.3977 1.01653C16.2994 0.97809 16.2207 0.939653 16.1224 0.901216C15.493 0.651373 14.844 0.459187 14.1752 0.305438C14.0769 0.286219 13.9786 0.267001 13.8802 0.247782C13.6245 0.209345 13.3688 0.170907 13.1132 0.13247C13.0148 0.113251 12.9165 0.113251 12.7985 0.0940328C12.4444 0.0555955 12.1101 0.036377 11.756 0.036377C9.35653 0.036377 7.13402 0.766685 5.30488 1.99668C5.30488 1.99668 5.28521 1.99668 5.28521 2.0159C5.06886 2.15043 4.87218 2.30418 4.6755 2.45793C4.65583 2.47714 4.63616 2.47714 4.63616 2.49636C3.98711 2.99605 3.41673 3.57261 2.88569 4.20682C2.86602 4.22604 2.84636 4.24526 2.84636 4.24526C2.66934 4.45666 2.49233 4.66807 2.33498 4.89869V4.91791C1.09589 6.70524 0.368164 8.85773 0.368164 11.1832C0.368164 11.5291 0.387832 11.8751 0.427169 12.2018C0.486173 12.3363 0.486173 12.4516 0.505841 12.5477ZM5.79659 18.7553C5.5409 18.5439 5.28521 18.3325 5.02953 18.1211L4.77384 17.8713C4.55749 17.6599 4.34114 17.4292 4.14446 17.1794L7.2127 14.1813C7.6454 14.8155 8.1961 15.3536 8.84515 15.7572L5.79659 18.7553ZM7.92075 11.2216C7.92075 10.7604 8.01909 10.3183 8.15677 9.91476C8.1961 9.78023 8.25511 9.66491 8.31411 9.5496C8.37312 9.43429 8.43212 9.31898 8.5108 9.20367C8.96316 8.5118 9.61222 7.99289 10.3989 7.68539C10.8316 7.51243 11.3037 7.43555 11.7954 7.43555C11.9134 7.43555 12.0511 7.43555 12.1691 7.45477C12.2478 7.45477 12.3264 7.47399 12.4051 7.49321C12.4444 7.49321 12.4838 7.51243 12.5231 7.51243C12.6214 7.53165 12.7395 7.55086 12.8378 7.5893C12.8378 7.5893 12.8575 7.5893 12.8771 7.5893C12.9951 7.62774 13.0935 7.64696 13.2115 7.70461C14.2736 8.1082 15.0996 8.91539 15.493 9.95319C15.5323 10.0493 15.5717 10.1646 15.5913 10.2607V10.2799C15.611 10.376 15.6307 10.4721 15.6504 10.5682C15.6504 10.6066 15.67 10.6451 15.67 10.6835C15.6897 10.7604 15.6897 10.8373 15.7094 10.8949C15.729 11.0102 15.729 11.1255 15.729 11.2408C15.729 11.7213 15.6307 12.1826 15.4733 12.6054C15.1783 13.3741 14.6276 14.0275 13.9195 14.4504C13.8015 14.5272 13.6835 14.5849 13.5655 14.6425C13.4475 14.7002 13.3098 14.7579 13.1918 14.7963C12.7788 14.95 12.3264 15.0269 11.8544 15.0269C11.7364 15.0269 11.6184 15.0269 11.5004 15.0077C11.4217 15.0077 11.3627 14.9885 11.284 14.9693C11.2447 14.9693 11.2053 14.95 11.166 14.95C11.0677 14.9308 10.9693 14.9116 10.871 14.8924H10.8513C10.753 14.8539 10.635 14.8347 10.5366 14.7963C9.47454 14.4119 8.62881 13.6047 8.23544 12.5669C8.19611 12.4516 8.15677 12.3555 8.11743 12.2402V12.221C8.09776 12.1249 8.05843 12.0288 8.03876 11.9135C8.03876 11.8751 8.01909 11.8366 8.01909 11.7982C7.99942 11.7213 7.99942 11.6444 7.97975 11.5676C7.92075 11.4715 7.92075 11.3369 7.92075 11.2216ZM11.8347 20.8117C11.5397 20.8117 11.225 20.7925 10.93 20.7733C10.871 20.7733 10.812 20.7541 10.753 20.7541C10.4579 20.7156 10.1826 20.6772 9.90724 20.6195C9.8679 20.6195 9.82856 20.6003 9.76956 20.6003C9.49421 20.5427 9.23852 20.485 8.96316 20.4081C8.9435 20.4081 8.92383 20.3889 8.88449 20.3889C8.60914 20.312 8.33378 20.1967 8.05843 20.1006C8.01909 20.0814 7.97975 20.0622 7.94042 20.043C7.66506 19.9277 7.40938 19.8124 7.13402 19.6586L10.4186 16.4491C10.4383 16.4491 10.4579 16.4491 10.4776 16.4491C10.6546 16.4875 10.8513 16.526 11.0283 16.5644C11.0677 16.5644 11.1267 16.5836 11.166 16.5836C11.3824 16.6028 11.5987 16.6221 11.8151 16.6221C12.3068 16.6221 12.7591 16.5644 13.2115 16.4491L16.4961 19.6586C15.1193 20.3889 13.5262 20.8117 11.8347 20.8117ZM19.466 17.2371C19.348 17.3716 19.23 17.5061 19.112 17.6214C19.0333 17.6983 18.9546 17.7944 18.8759 17.8713L18.6399 18.1019C18.4826 18.2556 18.3252 18.4094 18.1482 18.5439C18.1089 18.5824 18.0499 18.6208 18.0105 18.6592C17.9712 18.6977 17.9319 18.7169 17.8925 18.7553L14.8046 15.7572C14.8046 15.7572 14.8243 15.7572 14.8243 15.738C14.962 15.6419 15.0996 15.5458 15.2373 15.4497C15.257 15.4305 15.2767 15.4305 15.2767 15.4113C15.729 15.0654 16.1027 14.6425 16.4371 14.1813L19.5053 17.1794C19.4856 17.1986 19.4856 17.2178 19.466 17.2371ZM20.4494 6.64759C20.5871 6.89743 20.7247 7.16649 20.8428 7.43555C20.8624 7.47399 20.8821 7.51243 20.9018 7.55086C21.0198 7.81993 21.1181 8.08899 21.1968 8.35805C21.1968 8.37726 21.2164 8.39648 21.2164 8.43492C21.2951 8.68476 21.3738 8.95382 21.4328 9.22289C21.4328 9.26132 21.4525 9.29976 21.4525 9.35742C21.5115 9.62648 21.5508 9.91476 21.5901 10.1838C21.5901 10.2415 21.6098 10.2991 21.6098 10.3568C21.6295 10.6451 21.6492 10.9333 21.6492 11.2408C21.6492 12.9129 21.1968 14.4888 20.4297 15.8725L17.1451 12.663C17.2828 12.2018 17.3418 11.7213 17.3418 11.2216C17.3418 11.0102 17.3221 10.7796 17.3025 10.5682C17.3025 10.5298 17.2828 10.4913 17.2828 10.4529C17.2631 10.2607 17.2238 10.0877 17.1648 9.89554C17.1648 9.87632 17.1648 9.8571 17.1648 9.8571L20.4494 6.64759ZM17.9319 3.72636L19.5053 5.26385C19.525 5.28306 19.525 5.28307 19.5447 5.30228L16.4764 8.31961C16.0634 7.68539 15.5127 7.14727 14.8636 6.72446L17.9319 3.72636ZM11.8347 1.63152C12.1297 1.63152 12.4444 1.65074 12.7395 1.66996C12.7985 1.66996 12.8575 1.68918 12.9165 1.68918C13.2115 1.72762 13.4868 1.76605 13.7622 1.82371C13.8015 1.82371 13.8605 1.84293 13.8999 1.86215C14.1556 1.9198 14.3916 1.97746 14.6473 2.05433C14.6866 2.07355 14.7456 2.07355 14.785 2.09277C15.0603 2.16965 15.316 2.26574 15.5717 2.38105C15.6307 2.40027 15.6897 2.43871 15.7487 2.45793C15.965 2.55402 16.2011 2.65011 16.4174 2.76542C16.4567 2.78464 16.4961 2.80386 16.5354 2.82308C16.5551 2.82308 16.5551 2.8423 16.5748 2.8423L13.3098 6.03259C13.2902 6.03259 13.2705 6.03259 13.2508 6.01337C13.0541 5.95572 12.8575 5.91728 12.6608 5.89806C12.6018 5.89806 12.5624 5.87884 12.5034 5.87884C12.2871 5.85962 12.0511 5.84041 11.8151 5.84041C11.3037 5.84041 10.812 5.91728 10.3399 6.03259L7.09469 2.8423C8.5108 2.07355 10.1236 1.63152 11.8347 1.63152ZM4.16413 5.28306L5.75725 3.72636L8.82549 6.72446C8.35345 7.03196 7.92075 7.41633 7.56672 7.85836C7.54705 7.87758 7.54705 7.8968 7.52739 7.8968C7.42904 8.03133 7.3307 8.16586 7.23236 8.30039C7.23236 8.30039 7.23236 8.31961 7.2127 8.31961L4.12479 5.3215C4.14446 5.30228 4.14446 5.28306 4.16413 5.28306ZM3.22005 6.64759L6.50464 9.8571C6.38663 10.2991 6.32763 10.7412 6.32763 11.2216C6.32763 11.4522 6.34729 11.6637 6.36696 11.8943C6.36696 11.9519 6.38663 11.9904 6.38663 12.048C6.42597 12.2402 6.4653 12.4324 6.50464 12.6246C6.50464 12.6438 6.50464 12.663 6.52431 12.6822L3.25939 15.8533C3.25939 15.8341 3.23972 15.8341 3.23972 15.8149C3.22005 15.7764 3.20038 15.738 3.18072 15.6803C3.06271 15.4689 2.96437 15.2575 2.86602 15.0461C2.84636 14.9885 2.80702 14.9308 2.78735 14.8732C2.68901 14.6233 2.59067 14.3735 2.49233 14.1044C2.47266 14.0468 2.47266 14.0083 2.45299 13.9507C2.37432 13.72 2.31532 13.4702 2.25631 13.2396C2.23664 13.2011 2.23664 13.1435 2.21697 13.1051C2.15797 12.836 2.11863 12.5669 2.0793 12.2786C2.0793 12.221 2.05963 12.1633 2.05963 12.0865C2.03996 11.7982 2.02029 11.5099 2.02029 11.2024C2.02029 9.56882 2.45299 8.01211 3.22005 6.64759Z" fill="#0F4343"/>
</g>
</svg>
