<svg width="28" height="31" viewBox="0 0 28 31" fill="none" xmlns="http://www.w3.org/2000/svg">
<g id="Group">
<path id="Vector" d="M13.97 0.314181C13.7997 0.329908 13.6414 0.406881 13.5256 0.530265C13.4098 0.653649 13.3446 0.814711 13.3427 0.98241L13.267 3.54926C13.2649 3.6384 13.2807 3.72709 13.3135 3.81025C13.3463 3.89341 13.3955 3.96942 13.4583 4.03393C13.521 4.09844 13.5961 4.1502 13.6793 4.18624C13.7625 4.22229 13.8521 4.24192 13.943 4.24401C14.0338 4.24609 14.1243 4.2306 14.2091 4.19842C14.2939 4.16624 14.3714 4.11799 14.4371 4.05643C14.5029 3.99487 14.5557 3.92121 14.5924 3.83965C14.6292 3.75809 14.6492 3.67023 14.6513 3.58108L14.7271 1.01423C14.7306 0.917703 14.713 0.821554 14.6756 0.732203C14.6382 0.642853 14.5818 0.562359 14.5101 0.496098C14.4385 0.429837 14.3532 0.379334 14.2601 0.347963C14.1669 0.316592 14.068 0.305075 13.97 0.314181ZM5.96676 4.05839C5.83434 4.06728 5.70732 4.11333 5.60083 4.19104C5.49435 4.26875 5.41288 4.37484 5.36615 4.49668C5.31943 4.61852 5.3094 4.75097 5.33726 4.87824C5.36513 5.00552 5.42972 5.12225 5.52334 5.21453L6.66974 6.39189C6.7291 6.46714 6.80393 6.52932 6.88936 6.5744C6.9748 6.61947 7.06894 6.64642 7.16569 6.65351C7.26243 6.66061 7.35962 6.64768 7.45094 6.61556C7.54226 6.58345 7.62568 6.53287 7.69578 6.4671C7.76589 6.40134 7.82112 6.32185 7.85789 6.23381C7.89465 6.14576 7.91214 6.05112 7.90922 5.95602C7.90629 5.86092 7.88301 5.76748 7.8409 5.68177C7.79878 5.59606 7.73876 5.51998 7.66474 5.45849L6.52915 4.28113C6.45879 4.20457 6.37159 4.14473 6.27415 4.10614C6.17671 4.06754 6.07159 4.05121 5.96676 4.05839ZM22.0165 4.05839C21.8341 4.06816 21.6631 4.14822 21.5406 4.28113L20.405 5.45849C20.331 5.51998 20.271 5.59606 20.2289 5.68177C20.1867 5.76748 20.1635 5.86092 20.1605 5.95602C20.1576 6.05112 20.1751 6.14576 20.2119 6.23381C20.2486 6.32185 20.3039 6.40134 20.374 6.4671C20.4441 6.53287 20.5275 6.58345 20.6188 6.61556C20.7101 6.64768 20.8073 6.66061 20.9041 6.65351C21.0008 6.64642 21.095 6.61947 21.1804 6.5744C21.2658 6.52932 21.3407 6.46714 21.4 6.39189L22.5464 5.21453C22.6451 5.11709 22.7112 4.99262 22.7363 4.85753C22.7613 4.72244 22.7439 4.58309 22.6865 4.45787C22.6291 4.33264 22.5344 4.22743 22.4147 4.15611C22.2951 4.08479 22.1563 4.05072 22.0165 4.05839ZM14.0349 5.37363C9.73543 5.37363 6.26958 8.84124 6.26958 13.0848C6.26958 14.8918 7.0471 16.399 7.83778 17.7094C9.09237 19.7886 9.24419 20.8582 9.24376 21.4005C9.24354 21.6717 9.1622 21.7423 9.2005 22.1218C9.21964 22.3115 9.43103 22.6778 9.67636 22.79C9.9217 22.9022 10.0713 22.8961 10.2279 22.8961H17.8418C17.9985 22.8961 18.1481 22.9022 18.3934 22.79C18.6387 22.6778 18.8501 22.3115 18.8693 22.1218C18.9076 21.7423 18.8262 21.6717 18.826 21.4005C18.8256 20.8582 18.9774 19.7886 20.232 17.7094C21.0227 16.399 21.8002 14.8918 21.8002 13.0848C21.8002 8.84124 18.3343 5.37363 14.0349 5.37363ZM14.0349 6.7313C17.5794 6.7313 20.4158 9.5607 20.4158 13.0848C20.4158 14.5078 19.7955 15.7717 19.0423 17.0199C17.7033 19.2391 17.441 20.5944 17.4417 21.4005C17.4417 21.4941 17.45 21.4577 17.4525 21.5384H10.6173C10.6198 21.4577 10.628 21.4941 10.6281 21.4005C10.6288 20.5944 10.3665 19.2391 9.02745 17.0199C8.27426 15.7717 7.65392 14.5078 7.65392 13.0848C7.65392 9.5607 10.4904 6.7313 14.0349 6.7313ZM1.52172 10.4649C1.43082 10.467 1.34123 10.4866 1.25807 10.5227C1.17491 10.5587 1.0998 10.6105 1.03703 10.675C0.974265 10.7395 0.925068 10.8155 0.892252 10.8987C0.859435 10.9818 0.843641 11.0705 0.845771 11.1596C0.847902 11.2488 0.867915 11.3367 0.904668 11.4182C0.941421 11.4998 0.994194 11.5734 1.05997 11.635C1.12576 11.6966 1.20325 11.7448 1.28805 11.777C1.37284 11.8092 1.46327 11.8247 1.55417 11.8226L4.19307 11.8968C4.28397 11.8989 4.37439 11.8834 4.45919 11.8512C4.54398 11.8191 4.62148 11.7708 4.68726 11.7092C4.75304 11.6477 4.80581 11.574 4.84257 11.4925C4.87932 11.4109 4.89933 11.323 4.90146 11.2339C4.90359 11.1447 4.8878 11.0561 4.85498 10.9729C4.82217 10.8897 4.77297 10.8137 4.7102 10.7492C4.64743 10.6847 4.57232 10.633 4.48916 10.5969C4.406 10.5609 4.31641 10.5412 4.22551 10.5391L1.59743 10.4649C1.57221 10.4635 1.54694 10.4635 1.52172 10.4649ZM26.4723 10.4649L23.8442 10.5391C23.6607 10.5434 23.4863 10.6189 23.3596 10.7492C23.2328 10.8795 23.164 11.0539 23.1683 11.2339C23.1726 11.4139 23.2497 11.5849 23.3825 11.7092C23.5154 11.8336 23.6931 11.901 23.8767 11.8968L26.5156 11.8226C26.6992 11.8169 26.8729 11.74 26.9987 11.6087C27.1244 11.4775 27.1919 11.3026 27.1861 11.1225C27.1804 10.9425 27.102 10.7721 26.9681 10.6487C26.8342 10.5254 26.6559 10.4593 26.4723 10.4649ZM16.8036 10.9316C16.6212 10.9414 16.4501 11.0214 16.3277 11.1543L13.0723 14.644L11.807 13.6257C11.7372 13.5651 11.6557 13.5189 11.5673 13.49C11.4789 13.461 11.3855 13.4498 11.2926 13.4572C11.1997 13.4645 11.1092 13.4901 11.0267 13.5325C10.9441 13.5749 10.8711 13.6332 10.8121 13.704C10.7531 13.7747 10.7093 13.8564 10.6832 13.9442C10.6572 14.0319 10.6495 14.1239 10.6606 14.2147C10.6717 14.3054 10.7013 14.3931 10.7478 14.4723C10.7942 14.5515 10.8565 14.6208 10.9309 14.6758L12.6938 16.1077C12.8305 16.2188 13.0055 16.2742 13.1826 16.2624C13.3598 16.2505 13.5255 16.1724 13.6455 16.0441L17.3551 12.0771C17.4516 11.9779 17.5152 11.8523 17.5375 11.717C17.5598 11.5816 17.5397 11.4428 17.48 11.3188C17.4203 11.1948 17.3238 11.0915 17.203 11.0223C17.0823 10.9532 16.943 10.9216 16.8036 10.9316ZM10.3145 23.9037C10.2236 23.9086 10.1345 23.931 10.0524 23.9696C9.97035 24.0082 9.89683 24.0623 9.83606 24.1288C9.77529 24.1953 9.72848 24.2728 9.69828 24.3571C9.66808 24.4413 9.6551 24.5305 9.66007 24.6197C9.66504 24.7088 9.68787 24.7962 9.72725 24.8767C9.76663 24.9572 9.8218 25.0293 9.8896 25.0889C9.95739 25.1484 10.0365 25.1944 10.1224 25.224C10.2083 25.2536 10.2993 25.2663 10.3902 25.2614H17.6796C17.7713 25.2627 17.8624 25.2461 17.9475 25.2125C18.0326 25.179 18.1101 25.1292 18.1754 25.066C18.2407 25.0028 18.2926 24.9276 18.328 24.8446C18.3634 24.7616 18.3816 24.6725 18.3816 24.5826C18.3816 24.4926 18.3634 24.4035 18.328 24.3205C18.2926 24.2376 18.2407 24.1623 18.1754 24.0991C18.1101 24.036 18.0326 23.9862 17.9475 23.9526C17.8624 23.9191 17.7713 23.9025 17.6796 23.9037H10.3902C10.3649 23.9024 10.3397 23.9024 10.3145 23.9037ZM11.0066 26.3645C10.9157 26.3694 10.8267 26.3918 10.7446 26.4304C10.6625 26.469 10.589 26.5231 10.5282 26.5896C10.4675 26.6561 10.4206 26.7336 10.3905 26.8179C10.3603 26.9021 10.3473 26.9913 10.3522 27.0805C10.3572 27.1696 10.38 27.2569 10.4194 27.3374C10.4588 27.4179 10.514 27.49 10.5818 27.5496C10.6496 27.6092 10.7287 27.6551 10.8146 27.6847C10.9004 27.7143 10.9914 27.7271 11.0823 27.7222H16.9874C17.0791 27.7235 17.1702 27.7068 17.2553 27.6733C17.3404 27.6398 17.4179 27.59 17.4832 27.5268C17.5485 27.4636 17.6004 27.3884 17.6358 27.3054C17.6712 27.2224 17.6895 27.1333 17.6895 27.0434C17.6895 26.9534 17.6712 26.8643 17.6358 26.7813C17.6004 26.6983 17.5485 26.6231 17.4832 26.5599C17.4179 26.4967 17.3404 26.4469 17.2553 26.4134C17.1702 26.3799 17.0791 26.3632 16.9874 26.3645H11.0823C11.0571 26.3632 11.0318 26.3632 11.0066 26.3645ZM12.9209 28.8359C12.83 28.8408 12.741 28.8631 12.6589 28.9018C12.5768 28.9404 12.5033 28.9945 12.4425 29.061C12.3818 29.1274 12.3349 29.205 12.3047 29.2892C12.2745 29.3735 12.2616 29.4627 12.2665 29.5519C12.2715 29.641 12.2943 29.7283 12.3337 29.8088C12.3731 29.8893 12.4283 29.9614 12.4961 30.021C12.5639 30.0806 12.643 30.1265 12.7288 30.1561C12.8147 30.1857 12.9057 30.1985 12.9966 30.1936H15.0731C15.1649 30.1948 15.2559 30.1782 15.341 30.1447C15.4262 30.1111 15.5036 30.0613 15.5689 29.9982C15.6343 29.935 15.6861 29.8598 15.7215 29.7768C15.7569 29.6938 15.7752 29.6047 15.7752 29.5147C15.7752 29.4248 15.7569 29.3357 15.7215 29.2527C15.6861 29.1697 15.6343 29.0945 15.5689 29.0313C15.5036 28.9681 15.4262 28.9183 15.341 28.8848C15.2559 28.8512 15.1649 28.8346 15.0731 28.8359H12.9966C12.9714 28.8345 12.9461 28.8345 12.9209 28.8359Z" fill="#384A11"/>
</g>
</svg>
