<svg width="81" height="80" viewBox="0 0 81 80" fill="none" xmlns="http://www.w3.org/2000/svg">
<g id="6452406d82a3da02e6151851_star.svg" clip-path="url(#clip0_2095_187)">
<path id="Vector" d="M40.33 80C62.4213 80 80.33 62.0914 80.33 40C80.33 17.9086 62.4213 0 40.33 0C18.2386 0 0.329956 17.9086 0.329956 40C0.329956 62.0914 18.2386 80 40.33 80Z" fill="#F1F4FB"/>
<g id="Clip path group">
<mask id="mask0_2095_187" style="mask-type:luminance" maskUnits="userSpaceOnUse" x="17" y="17" width="47" height="46">
<g id="clip0_102_2459">
<path id="Vector_2" d="M63.33 17H17.33V63H63.33V17Z" fill="white"/>
</g>
</mask>
<g mask="url(#mask0_2095_187)">
<g id="Group">
<path id="Vector_3" d="M59.6265 32.1063L54.5683 36.4188L56.083 42.8391C56.1898 43.2891 56.1615 43.7606 56.0017 44.1946C55.8419 44.6286 55.5577 45.0059 55.1846 45.2792C54.8073 45.5563 54.3567 45.716 53.8892 45.7384C53.4216 45.7607 52.9578 45.6448 52.5558 45.405L46.8058 41.9909L41.0558 45.405C40.6538 45.6448 40.19 45.7607 39.7224 45.7384C39.2548 45.716 38.8042 45.5563 38.427 45.2792C38.0541 45.0057 37.77 44.6284 37.6102 44.1945C37.4504 43.7605 37.422 43.2891 37.5285 42.8391L39.0433 36.4188L33.9833 32.1063C33.6292 31.8041 33.3724 31.4038 33.2453 30.956C33.1182 30.5081 33.1265 30.0327 33.269 29.5895C33.4116 29.1463 33.682 28.7552 34.0464 28.4654C34.4107 28.1756 34.8527 28.0001 35.3166 27.9609L42.0063 27.3949L44.6154 21.3125C44.7995 20.8861 45.1045 20.5229 45.4926 20.2678C45.8807 20.0126 46.335 19.8766 46.7995 19.8766C47.264 19.8766 47.7183 20.0126 48.1064 20.2678C48.4945 20.5229 48.7994 20.8861 48.9836 21.3125L51.5927 27.3985L58.2806 27.9609C58.7456 27.9974 59.1893 28.171 59.5556 28.4597C59.9219 28.7485 60.1943 29.1394 60.3384 29.5829C60.4825 30.0265 60.4917 30.5029 60.365 30.9517C60.2383 31.4006 59.9813 31.8018 59.6265 32.1045V32.1063Z" fill="#002B52"/>
<path id="Vector_4" d="M33.1761 37.5454C33.0426 37.4118 32.8841 37.3057 32.7095 37.2334C32.535 37.1611 32.348 37.1238 32.1591 37.1238C31.9702 37.1238 31.7831 37.1611 31.6086 37.2334C31.4341 37.3057 31.2755 37.4118 31.142 37.5454L21.0795 47.6079C20.8098 47.8776 20.6583 48.2435 20.6583 48.6249C20.6583 49.0064 20.8098 49.3722 21.0795 49.642C21.3493 49.9117 21.7151 50.0632 22.0966 50.0632C22.478 50.0632 22.8439 49.9117 23.1136 49.642L33.1761 39.5795C33.3098 39.446 33.4158 39.2874 33.4881 39.1129C33.5605 38.9384 33.5977 38.7514 33.5977 38.5624C33.5977 38.3735 33.5605 38.1865 33.4881 38.012C33.4158 37.8375 33.3098 37.6789 33.1761 37.5454ZM36.0511 47.6079C35.9176 47.4743 35.7591 47.3682 35.5845 47.2959C35.41 47.2235 35.223 47.1863 35.0341 47.1863C34.8452 47.1863 34.6581 47.2235 34.4836 47.2959C34.3091 47.3682 34.1505 47.4743 34.017 47.6079L23.9545 57.6704C23.821 57.804 23.715 57.9625 23.6428 58.137C23.5705 58.3115 23.5333 58.4986 23.5333 58.6874C23.5333 58.8763 23.5705 59.0634 23.6428 59.2379C23.715 59.4124 23.821 59.5709 23.9545 59.7045C24.2243 59.9742 24.5901 60.1257 24.9716 60.1257C25.1604 60.1257 25.3475 60.0885 25.522 60.0163C25.6965 59.944 25.855 59.838 25.9886 59.7045L36.0511 49.642C36.1848 49.5085 36.2908 49.3499 36.3631 49.1754C36.4355 49.0009 36.4727 48.8139 36.4727 48.6249C36.4727 48.436 36.4355 48.249 36.3631 48.0745C36.2908 47.9 36.1848 47.7414 36.0511 47.6079ZM46.9563 47.6079L36.8938 57.6704C36.6241 57.9401 36.4726 58.306 36.4726 58.6874C36.4726 59.0689 36.6241 59.4347 36.8938 59.7045C37.1636 59.9742 37.5294 60.1257 37.9109 60.1257C38.2923 60.1257 38.6582 59.9742 38.9279 59.7045L48.9904 49.642C49.2601 49.3725 49.4118 49.0069 49.4119 48.6256C49.4121 48.2443 49.2608 47.8785 48.9913 47.6088C48.7218 47.3391 48.3562 47.1875 47.9749 47.1873C47.5936 47.1871 47.2279 47.3384 46.9581 47.6079H46.9563Z" fill="#446BF0"/>
</g>
</g>
</g>
</g>
<defs>
<clipPath id="clip0_2095_187">
<rect width="80" height="80" fill="white" transform="translate(0.329956)"/>
</clipPath>
</defs>
</svg>
