<svg width="81" height="80" viewBox="0 0 81 80" fill="none" xmlns="http://www.w3.org/2000/svg">
<g id="6452406d99312f540a177c04_chart.svg" clip-path="url(#clip0_2095_172)">
<path id="Vector" d="M40.66 80C62.7514 80 80.66 62.0914 80.66 40C80.66 17.9086 62.7514 0 40.66 0C18.5686 0 0.660004 17.9086 0.660004 40C0.660004 62.0914 18.5686 80 40.66 80Z" fill="#F1F4FB"/>
<g id="Clip path group">
<mask id="mask0_2095_172" style="mask-type:luminance" maskUnits="userSpaceOnUse" x="17" y="17" width="47" height="46">
<g id="clip0_102_2466">
<path id="Vector_2" d="M63.66 17H17.66V63H63.66V17Z" fill="white"/>
</g>
</mask>
<g mask="url(#mask0_2095_172)">
<g id="Group">
<path id="Vector_3" d="M21.9725 54.375C21.9725 54.7562 22.124 55.1219 22.3935 55.3915C22.6631 55.661 23.0288 55.8125 23.41 55.8125H57.91C58.2912 55.8125 58.6569 55.661 58.9265 55.3915C59.196 55.1219 59.3475 54.7562 59.3475 54.375C59.3475 53.9938 59.196 53.6281 58.9265 53.3585C58.6569 53.0889 58.2912 52.9375 57.91 52.9375H56.4725V41.4375C56.4725 41.0563 56.321 40.6906 56.0515 40.421C55.7819 40.1514 55.4162 40 55.035 40H50.7225C50.3413 40 49.9756 40.1514 49.706 40.421C49.4365 40.6906 49.285 41.0563 49.285 41.4375V52.9375H46.41V32.8125C46.41 32.4313 46.2585 32.0656 45.989 31.796C45.7194 31.5265 45.3537 31.375 44.9725 31.375H39.2225C38.8413 31.375 38.4756 31.5265 38.206 31.796C37.9364 32.0656 37.785 32.4313 37.785 32.8125V52.9375H34.91V24.1875C34.91 23.8063 34.7586 23.4406 34.489 23.171C34.2194 22.9015 33.8537 22.75 33.4725 22.75H26.285C25.9038 22.75 25.5381 22.9015 25.2685 23.171C24.999 23.4406 24.8475 23.8063 24.8475 24.1875V52.9375H23.41C23.0288 52.9375 22.6631 53.0889 22.3935 53.3585C22.124 53.6281 21.9725 53.9938 21.9725 54.375Z" fill="#002B52"/>
<path id="Vector_4" d="M37.58 33.849C37.58 32.1922 38.9232 30.849 40.58 30.849H43.9238C45.5806 30.849 46.9238 32.1922 46.9238 33.849V53.1303H37.58V33.849Z" fill="#446BF0"/>
</g>
</g>
</g>
</g>
<defs>
<clipPath id="clip0_2095_172">
<rect width="80" height="80" fill="white" transform="translate(0.660004)"/>
</clipPath>
</defs>
</svg>
