<svg width="43" height="41" viewBox="0 0 43 41" fill="none" xmlns="http://www.w3.org/2000/svg">
<g id="6453a1db71b762cacdd0ef8f_check.svg">
<g id="Clip path group">
<mask id="mask0_2052_1405" style="mask-type:luminance" maskUnits="userSpaceOnUse" x="1" y="0" width="41" height="41">
<g id="clip0_111_4449">
<path id="Vector" d="M41.6649 0.335144H1.33521V40.6648H41.6649V0.335144Z" fill="white"/>
</g>
</mask>
<g mask="url(#mask0_2052_1405)">
<g id="Group">
<path id="Vector_2" d="M39.1442 20.5C39.1442 22.1447 37.9612 23.3782 36.9166 24.4668C36.3228 25.0875 35.7084 25.7271 35.4767 26.2896C35.2625 26.8047 35.2499 27.6585 35.2373 28.4857C35.2136 30.0232 35.1884 31.7655 33.977 32.977C32.7654 34.1884 31.0232 34.2136 29.4856 34.2373C28.6585 34.2499 27.8046 34.2625 27.2895 34.4768C26.7271 34.7084 26.0875 35.3228 25.4668 35.9167C24.3781 36.9612 23.1447 38.1443 21.5 38.1443C19.8553 38.1443 18.6217 36.9612 17.5332 35.9167C16.9125 35.3228 16.2729 34.7084 15.7104 34.4768C15.1953 34.2625 14.3414 34.2499 13.5143 34.2373C11.9768 34.2136 10.2344 34.1884 9.02296 32.977C7.81149 31.7655 7.78628 30.0232 7.76265 28.4857C7.75005 27.6585 7.73745 26.8047 7.52319 26.2896C7.29161 25.7271 6.67722 25.0875 6.0833 24.4668C5.03882 23.3782 3.85571 22.1447 3.85571 20.5C3.85571 18.8553 5.03882 17.6217 6.0833 16.5332C6.67722 15.9125 7.29161 15.2729 7.52319 14.7104C7.73745 14.1954 7.75005 13.3415 7.76265 12.5144C7.78628 10.9769 7.81149 9.23448 9.02296 8.02302C10.2344 6.81155 11.9768 6.78634 13.5143 6.76271C14.3414 6.75011 15.1953 6.73751 15.7104 6.52326C16.2729 6.29168 16.9125 5.67728 17.5332 5.08336C18.6217 4.03888 19.8553 2.85577 21.5 2.85577C23.1447 2.85577 24.3781 4.03888 25.4668 5.08336C26.0875 5.67728 26.7271 6.29168 27.2895 6.52326C27.8046 6.73751 28.6585 6.75011 29.4856 6.76271C31.0232 6.78634 32.7654 6.81155 33.977 8.02302C35.1884 9.23448 35.2136 10.9769 35.2373 12.5144C35.2499 13.3415 35.2625 14.1954 35.4767 14.7104C35.7084 15.2729 36.3228 15.9125 36.9166 16.5332C37.9612 17.6217 39.1442 18.8553 39.1442 20.5Z" fill="#D2EEDC"/>
<g id="Clip path group_2">
<mask id="mask1_2052_1405" style="mask-type:luminance" maskUnits="userSpaceOnUse" x="10" y="9" width="23" height="23">
<g id="clip1_111_4449">
<path id="Vector_3" d="M32.8427 9.15729H10.1572V31.8427H32.8427V9.15729Z" fill="white"/>
</g>
</mask>
<g mask="url(#mask1_2052_1405)">
<g id="Group_2">
<path id="Vector_4" d="M13.7019 21.9179L18.6643 26.8803L30.0071 15.5376" stroke="#00B741" stroke-width="2.77267" stroke-linecap="round" stroke-linejoin="round"/>
</g>
</g>
</g>
</g>
</g>
</g>
</g>
</svg>
