<svg width="65" height="55" viewBox="0 0 65 55" fill="none" xmlns="http://www.w3.org/2000/svg">
<g id="Group">
<path id="Vector 144" d="M11.9408 8.68413C10.4934 8.68413 6.875 9.76966 5.78947 13.0262L3.61842 17.0065L1.08553 21.7105L2.53289 28.5855L7.96053 33.6512C9.89035 33.8925 14.4737 34.4473 17.3684 34.7368C17.7303 38.717 21.3487 41.6118 28.9474 41.9736C35.0263 42.2631 38.9583 50.0547 40.1645 53.9144L44.8684 54.2762V51.3815C44.7478 50.0547 44.7961 47.3289 45.9539 47.0394C51.7434 47.9078 55.6031 43.3004 56.8092 40.8881C56.3268 39.8026 56.0132 37.1973 58.6184 35.4605C61.875 33.2894 62.9605 27.8618 62.5987 25.6907C62.2368 23.5197 63.6842 20.9868 62.5987 18.4539C61.5132 15.921 58.9803 14.4736 58.6184 14.1118C58.2566 13.7499 57.5329 11.217 57.5329 10.4933C57.5329 9.76966 56.8092 9.76966 55.7237 9.04598C54.6382 8.32229 55 8.32229 55 7.96045C55 7.59861 53.5526 7.59861 53.1908 7.23677C52.8289 6.87492 52.4671 7.23677 51.7434 6.87492C51.0197 6.51308 50.2961 6.51308 49.5724 6.15124C48.8487 5.7894 49.2105 5.7894 48.8487 5.42755C48.4868 5.06571 48.4868 4.70387 48.125 4.34203C47.8355 4.05255 47.2807 3.73896 47.0395 3.61834C46.6776 3.49773 45.9539 3.18413 45.9539 2.89466C45.9539 2.53282 45.5921 2.89466 45.2303 2.89466H43.0592H41.9737C41.25 2.65343 39.7303 2.0986 39.4408 1.80913C39.1513 1.51966 37.6316 1.20606 36.9079 1.08545L35.4605 1.44729C34.9781 1.32668 33.3618 1.30255 30.7566 2.17097C28.2237 0.361762 23.1579 1.80913 20.2632 5.06571C12.6645 3.98018 13.3882 8.68413 11.9408 8.68413Z" fill="#4BFFC9"/>
<path id="Vector" d="M64.1908 21.4211C64.1908 18.2368 62.3092 15.3421 59.4145 14.0395C58.6908 9.55263 55 6.07895 50.5132 5.7171C49.2829 3.18421 46.6776 1.51974 43.7829 1.51974C43.4211 1.51974 43.0592 1.59211 42.6974 1.59211H42.625C42.2632 1.66447 41.8289 1.73684 41.4671 1.88158C40.0197 0.723684 38.2105 0 36.3289 0C34.8092 0 33.2895 0.434211 32.0592 1.30263C30.7566 0.723684 29.3092 0.434211 27.7895 0.434211C24.8224 0.434211 22 1.66447 20.0461 3.90789C19.3947 3.76316 18.8158 3.69079 18.1645 3.69079C15.5592 3.69079 13.1711 4.99342 11.7961 7.23684C11.7237 7.23684 11.5789 7.23684 11.5066 7.23684C11.3618 7.23684 11.2171 7.23684 11.1447 7.23684C11 7.23684 10.8553 7.30921 10.7105 7.30921C10.5658 7.30921 10.4934 7.38158 10.3487 7.38158C10.2039 7.38158 10.0592 7.45395 9.91447 7.52632C9.76974 7.52632 9.69737 7.59868 9.55263 7.59868C9.4079 7.67105 9.26316 7.67105 9.19079 7.74342C9.04605 7.81579 8.90132 7.81579 8.82895 7.88816C8.75658 7.96053 8.61184 7.96053 8.53947 8.0329C8.39474 8.10526 8.25 8.17763 8.10526 8.25C5.57237 9.625 3.83553 12.3026 3.61842 15.3421V15.4145C1.30263 17.5855 0 20.6974 0 23.8816C0 30.3224 5.2829 35.6053 11.7237 35.6053C12.375 35.6053 13.0987 35.5329 13.75 35.4605C14.6184 35.75 15.5592 35.8947 16.5 35.9671C18.3816 40.5987 22.1447 43.0592 27.2829 43.0592C32.2039 43.0592 38.1382 48.0526 38.1382 53.9145V55H46.3882L45.4474 48.2697C51.1645 48.8487 56.5921 45.1579 58.0395 39.4408C58.2566 38.4276 58.4013 37.4145 58.4013 36.4737C61.8026 35.2434 64.1908 31.9868 64.1908 28.2961C64.1908 27.0658 63.9737 25.9079 63.4671 24.8224C63.9013 23.7368 64.1908 22.5789 64.1908 21.4211ZM61.079 25.3289C61.5855 26.2697 61.8026 27.2105 61.8026 28.2961C61.8026 30.7566 60.3553 33 58.1118 34.0132C57.1711 29.7434 53.8421 26.2697 49.5724 25.1842C48.9211 25.0395 48.2697 25.4013 48.125 26.0526C47.9803 26.7039 48.3421 27.3553 48.9934 27.5C52.829 28.4408 55.6513 31.6974 56.0132 35.6053C56.1579 36.6908 56.0132 37.7763 55.7961 38.8618C54.4934 43.9276 49.4276 46.9671 44.3618 45.6645L42.6974 45.2303L43.7105 52.6118H40.3816C39.6579 45.8092 32.8553 40.5263 27.2105 40.5263C23.3026 40.5263 20.5526 38.9342 18.9605 35.75C18.9605 35.6776 18.9605 35.6053 18.8882 35.5329C17.6579 33 18.7434 29.8882 21.3487 28.6579C21.9276 28.3684 22.2171 27.6447 21.9276 27.0658C21.6382 26.4868 20.9145 26.1974 20.3355 26.4868C17.5855 27.7895 16.0658 30.5395 16.0658 33.3618C15.4145 33.2895 14.7632 33.1447 14.1842 32.9276L13.8947 32.7829L13.6053 32.8553C13.0263 33 12.375 33.0724 11.7237 33.0724C6.58553 33.0724 2.31579 28.875 2.31579 23.6645C2.31579 21.7829 2.89474 19.9013 3.98026 18.3816C4.84868 21.1316 7.16447 23.3026 9.98684 24.0263C9.76974 24.3882 9.625 24.75 9.55263 25.1118C9.26316 26.4145 9.4079 27.7171 10.1316 28.875C10.3487 29.2368 10.7105 29.4539 11.1447 29.4539C11.3618 29.4539 11.5789 29.3816 11.7237 29.3092C12.3026 28.9474 12.4474 28.2237 12.1579 27.7171C11.7961 27.1382 11.7237 26.4145 11.8684 25.7632C12.0132 25.1118 12.4474 24.5329 13.0263 24.1711C13.6053 23.8092 13.75 23.0855 13.4605 22.5789C13.1711 22.1447 12.6645 21.9276 12.1579 22.0724C8.75658 22 5.93421 19.1776 5.93421 15.7763C5.93421 12.3026 8.75658 9.48026 12.2303 9.48026C12.3026 9.48026 12.3026 9.48026 12.375 9.48026L13.3158 9.55263L13.6776 8.82895C14.5461 7.01974 16.3553 5.93421 18.3092 5.93421C18.9605 5.93421 19.5395 6.07895 20.1908 6.29605L20.9868 6.58553L21.4934 5.86184C23.0132 3.83553 25.4013 2.67763 27.9342 2.67763C29.2368 2.67763 30.6118 3.03947 31.7697 3.61842L32.4934 3.98026L33.0724 3.47368C34.0132 2.67763 35.1711 2.24342 36.4013 2.24342C37.4145 2.24342 38.4276 2.53289 39.2237 3.11184C37.4868 4.48684 36.3289 6.58553 36.3289 8.97368C36.3289 9.625 36.8355 10.1316 37.4868 10.1316C38.1382 10.1316 38.6447 9.625 38.6447 8.97368C38.6447 7.01974 39.7303 5.35526 41.25 4.48684L41.6118 4.3421C42.3355 4.05263 43.0592 3.83553 43.7829 3.83553C45.9539 3.83553 47.8355 5.21053 48.6316 7.23684L48.9211 8.0329H49.7171C53.625 8.0329 56.8816 11.1447 57.1711 14.9803L57.2434 15.7763L57.9671 15.9934C60.2829 16.7895 61.875 18.9605 61.875 21.4211C61.875 22.3618 61.6579 23.375 61.1513 24.1711L60.8619 24.75L61.079 25.3289ZM36.1842 31.3355C36.1842 29.1645 35.0987 27.1382 33.2895 25.9079C30.1776 24.4605 28.0066 21.4934 27.5724 18.0921C27.5 17.5855 27.8618 17.0789 28.3684 17.0066C28.875 16.9342 29.3816 17.2961 29.4539 17.8026C29.8882 20.9145 31.9868 23.5197 34.9539 24.5329C37.0526 25.2566 39.2961 25.1118 41.3224 24.1711C43.3487 23.2303 44.7961 21.4934 45.5197 19.3947C45.6645 18.8882 46.2434 18.6711 46.75 18.8158C47.2566 18.9605 47.4737 19.5395 47.329 20.0461C46.4605 22.6513 44.5789 24.6776 42.1184 25.8355C40.7434 26.4868 39.2237 26.8487 37.7039 26.8487C37.4145 26.8487 37.125 26.8487 36.7632 26.7763C37.5592 28.0789 38.0658 29.5987 38.0658 31.2632C38.0658 31.7697 37.6316 32.2039 37.125 32.2039C36.6184 32.2039 36.1842 31.8421 36.1842 31.3355ZM54.0592 20.4803C54.0592 20.9868 53.625 21.4211 53.1184 21.4211C52.6118 21.4211 52.1776 20.9868 52.1776 20.4803C52.1776 16.2105 48.7039 12.7368 44.4342 12.7368C43.9276 12.7368 43.4934 12.3026 43.4934 11.7961C43.4934 11.2895 43.9276 10.8553 44.4342 10.8553C49.7171 10.8553 54.0592 15.1974 54.0592 20.4803ZM29.1645 10.7829C29.1645 10.2763 29.5987 9.8421 30.1053 9.8421C34.2303 9.8421 37.6316 13.1711 37.6316 17.3684C37.6316 17.875 37.1974 18.3092 36.6908 18.3092C36.1842 18.3092 35.75 17.875 35.75 17.3684C35.75 14.2566 33.2171 11.7237 30.1053 11.7237C29.5987 11.7237 29.1645 11.2895 29.1645 10.7829ZM26.9211 32.2763C26.7763 32.5658 26.4145 32.7105 26.125 32.7105C25.9803 32.7105 25.7632 32.6382 25.6184 32.5658C25.1842 32.2763 25.0395 31.6974 25.3289 31.2632C26.9211 28.7303 26.125 25.4013 23.5921 23.8092C23.1579 23.5197 23.0132 22.9408 23.3026 22.5066C23.5921 22.0724 24.1711 21.9276 24.6053 22.2171C28.0066 24.3882 29.0197 28.875 26.9211 32.2763ZM26.0526 15.6316C24.6053 15.6316 23.3026 14.9803 22.2895 14.0395C20.625 16.4276 17.875 17.7303 15.125 17.7303C13.6776 17.7303 12.1579 17.3684 10.7829 16.5724C10.3487 16.2829 10.2039 15.7039 10.4211 15.2697C10.7105 14.8355 11.2895 14.6908 11.7237 14.9079C14.9803 16.7895 19.1776 15.7039 21.1316 12.375C20.7697 11.5789 20.5526 10.7105 20.5526 9.8421C20.5526 9.33553 20.9868 8.90131 21.4934 8.90131C22 8.90131 22.4342 9.33553 22.4342 9.8421C22.3618 11.8684 24.0263 13.6053 26.0526 13.6776C26.5592 13.6776 26.9934 14.1118 26.9934 14.6184C26.9934 15.2697 26.5592 15.6316 26.0526 15.6316ZM48.125 34.0132C48.5592 34.3026 48.6316 34.8816 48.3421 35.3158C46.5329 37.9211 43.6382 39.3684 40.6711 39.3684C38.8618 39.3684 37.0526 38.8618 35.4605 37.7763C35.0263 37.4868 34.9539 36.9079 35.2434 36.4737C35.5329 36.0395 36.1118 35.9671 36.5461 36.2566C38.2105 37.3421 40.1645 37.7763 42.1184 37.4145C44.0724 37.0526 45.7368 35.9671 46.8947 34.3026C47.1118 33.8684 47.6908 33.7237 48.125 34.0132Z" fill="black"/>
</g>
</svg>
