<svg width="38" height="30" viewBox="0 0 38 30" fill="none" xmlns="http://www.w3.org/2000/svg">
<path id="Vector" d="M21.1143 1.11475C21.6144 0.614825 22.2926 0.333984 22.9997 0.333984C23.7068 0.333984 24.3849 0.614825 24.885 1.11475L36.885 13.1147C37.3849 13.6148 37.6658 14.293 37.6658 15.0001C37.6658 15.7072 37.3849 16.3853 36.885 16.8854L24.885 28.8854C24.3821 29.3712 23.7085 29.64 23.0093 29.6339C22.3101 29.6278 21.6412 29.3474 21.1468 28.8529C20.6524 28.3585 20.372 27.6897 20.3659 26.9905C20.3598 26.2913 20.6286 25.6177 21.1143 25.1147L28.333 17.6667H2.99967C2.29243 17.6667 1.61415 17.3858 1.11406 16.8857C0.613959 16.3856 0.333008 15.7073 0.333008 15.0001C0.333008 14.2928 0.613959 13.6146 1.11406 13.1145C1.61415 12.6144 2.29243 12.3334 2.99967 12.3334H28.333L21.1143 4.88542C20.6144 4.38534 20.3336 3.70719 20.3336 3.00008C20.3336 2.29298 20.6144 1.61482 21.1143 1.11475Z" fill="white"/>
</svg>
